<?xml version="1.0" encoding="utf-8"?>
<!-- Generator: Adobe Illustrator 24.3.0, SVG Export Plug-In . SVG Version: 6.00 Build 0)  -->
<svg version="1.1" id="Layer_1" xmlns="http://www.w3.org/2000/svg" xmlns:xlink="http://www.w3.org/1999/xlink" x="0px" y="0px"
	 viewBox="0 0 841.89 595.28" style="enable-background:new 0 0 841.89 595.28;" xml:space="preserve">
<style type="text/css">
	.st0{fill:#FF8C78;}
</style>
<path class="st0" d="M421.09,415.64c0,30.38-20.73,52.24-49.41,52.24c-28.68,0-49.69-21.86-49.69-52.24v-30.38
	c0-30.38,21.86-52.24,49.69-52.24h18.46c19.59,0,30.95-11.36,30.95-30.95v-44.58c0-19.59-11.36-30.67-30.95-30.67h-12.78
	c-33.5,0-55.37-21.86-55.37-49.69c0-27.54,21.86-49.41,49.69-49.41c27.54,0,49.41,21.86,49.41,52.24v15.9
	c0,19.59,11.36,30.95,30.95,30.95h50.26c11.07,0,17.6,6.53,17.6,17.6v70.98c0,11.07-6.53,17.6-17.6,17.6h-50.26
	c-19.59,0-30.95,11.07-30.95,30.67V415.64z"/>
</svg>
